<svg width="17" height="16" viewBox="0 0 17 16" fill="none" xmlns="http://www.w3.org/2000/svg">
<path d="M9.41247 1.30717L9.41248 1.30714C8.78755 1.01509 8.14729 1.05512 7.46791 1.35013L7.23326 1.45947L7.22498 1.46333L7.22494 1.46325C7.04836 1.54163 6.87181 1.62012 6.69529 1.69871C6.42262 1.82311 6.14738 1.94834 5.87 2.07072L5.86848 2.07139C5.41714 2.26872 4.96795 2.46705 4.52121 2.66959C4.34075 2.75172 4.16021 2.83368 3.97961 2.91547L3.9758 2.91719L3.97579 2.91718C3.69864 3.03991 3.42405 3.16156 3.15092 3.28567C3.15082 3.28572 3.15071 3.28577 3.1506 3.28582L2.88886 3.40528L2.88114 3.4088L2.88111 3.40874C2.65881 3.50567 2.44623 3.60355 2.23826 3.71067C1.90644 3.93292 1.67248 4.19431 1.57937 4.4831L1.59165 4.63231L1.59269 4.64497L1.59253 4.64498C1.59969 4.77105 1.60247 4.81753 1.60678 4.85877C1.60964 4.88623 1.61328 4.91217 1.62112 4.96208C1.81178 5.31953 2.02369 5.51456 2.40615 5.68922L2.60723 5.77554L2.61457 5.77869L2.61454 5.77875C2.83994 5.87979 3.06397 5.97979 3.28838 6.0778C3.44891 6.14782 3.6092 6.21834 3.76927 6.28933L3.77001 6.28966C4.08922 6.43187 4.40765 6.57359 4.72641 6.71404C5.07025 6.86533 5.41461 7.01799 5.75839 7.17371L5.7604 7.17462L5.76039 7.17462L6.07469 7.31866L6.07498 7.31879L6.62827 7.5721L6.62945 7.57264C6.78397 7.64393 6.93859 7.7147 7.09338 7.78488C8.01584 8.18805 8.57013 8.36361 9.36257 8.05848L9.69998 7.91157L9.70019 7.91148C10.4774 7.5735 11.2507 7.2244 12.0242 6.87068C12.286 6.75067 12.5485 6.63057 12.8115 6.51118L12.8115 6.51118C12.9856 6.43217 13.1595 6.35289 13.3334 6.27334L13.5842 6.15839L13.5866 6.15727L13.5866 6.15728C13.6302 6.13756 13.6736 6.11805 13.7165 6.0987C14.3547 5.81133 14.9182 5.55757 15.3144 5.15124C15.4015 4.87366 15.4211 4.60642 15.3779 4.31107C15.3187 4.19084 15.2752 4.12173 15.2308 4.06832C15.1854 4.01375 15.1236 3.95709 15.0059 3.88034L14.6786 3.72687L14.6759 3.72562L14.6759 3.72561C14.4699 3.62752 14.2652 3.53078 14.0601 3.43633L9.41247 1.30717ZM9.41247 1.30717L9.41742 1.30942M9.41247 1.30717L9.41742 1.30942M9.41742 1.30942L9.74018 1.456L10.1002 1.62564L10.1002 1.6257M9.41742 1.30942L10.1002 1.6257M10.1002 1.6257L10.1075 1.62901M10.1002 1.6257L10.1075 1.62901M10.1075 1.62901C10.2505 1.69359 10.3936 1.75784 10.5367 1.82181C10.9298 1.99777 11.322 2.17636 11.7146 2.35627L11.7148 2.35632M10.1075 1.62901L11.7148 2.35632M11.7148 2.35632C11.9578 2.46762 12.201 2.57835 12.4437 2.68883C12.8335 2.86664 13.2224 3.0466 13.6108 3.22833L13.6112 3.22853M11.7148 2.35632L13.6112 3.22853M13.6112 3.22853C13.7605 3.29822 13.9101 3.36745 14.0598 3.4362L13.6112 3.22853ZM7.14853 2.02189L7.14875 2.0218L7.3915 1.91384C7.39175 1.91374 7.39199 1.91363 7.39223 1.91352C7.4403 1.89192 7.49129 1.86711 7.54522 1.84087C7.91323 1.6618 8.41816 1.4161 9.06828 1.67029L9.07686 1.67365L9.0853 1.67731L9.44482 1.83338C9.44486 1.8334 9.4449 1.83342 9.44494 1.83343C10.216 2.16791 10.9819 2.51168 11.7447 2.85889L11.745 2.85906C11.995 2.97308 12.2444 3.08672 12.4941 3.19957L7.14853 2.02189ZM7.14853 2.02189C6.97621 2.09863 6.80399 2.17554 6.63186 2.25263C6.37642 2.367 6.12058 2.48084 5.86424 2.59475L5.86383 2.59494M7.14853 2.02189L5.86383 2.59494M5.86383 2.59494C4.7433 3.09412 3.63173 3.60919 2.52535 4.13508L1.95219 4.40752M5.86383 2.59494L1.95219 4.40752M1.95219 4.40752L2.35119 4.90102M1.95219 4.40752L2.35119 4.90102M2.35119 4.90102C2.69802 5.33001 3.17056 5.53478 3.53258 5.69166C3.57475 5.70994 3.61543 5.72757 3.65424 5.74482L3.8923 5.85287L3.89256 5.85299M2.35119 4.90102L3.89256 5.85299M3.89256 5.85299C4.14679 5.96819 4.40127 6.08232 4.65484 6.19597C4.90355 6.30829 5.15222 6.42083 5.40105 6.53347L5.40142 6.53363M3.89256 5.85299L5.40142 6.53363M5.40142 6.53363C5.56489 6.60748 5.72848 6.68106 5.8922 6.75439L5.40142 6.53363ZM6.98319 7.26066L6.98162 7.2599C6.62417 7.08543 6.26134 6.91991 5.89239 6.75447L6.98319 7.26066ZM6.98319 7.26066L7.34751 7.43692L7.6599 7.59193L7.68431 7.60404M6.98319 7.26066L7.68431 7.60404M7.68431 7.60404L7.7099 7.61343M7.68431 7.60404L7.7099 7.61343M7.7099 7.61343C8.08936 7.75267 8.43303 7.78928 8.77693 7.73903C9.10613 7.69093 9.40939 7.56621 9.70282 7.43129L9.70284 7.43134M7.7099 7.61343L9.70284 7.43134M9.70284 7.43134L9.70954 7.42814M9.70284 7.43134L9.70954 7.42814M9.70954 7.42814L9.96069 7.30811L10.2262 7.18468L10.2266 7.18446M9.70954 7.42814L10.2266 7.18446M10.2266 7.18446C10.5099 7.0524 10.7921 6.91876 11.0727 6.78583C11.2588 6.69889 11.4449 6.61205 11.6311 6.52532L11.6316 6.52508M10.2266 7.18446L11.6316 6.52508M11.6316 6.52508C12.5882 6.0782 13.5423 5.62086 14.4873 5.1387L15.1614 4.79473M11.6316 6.52508L15.1614 4.79473M15.1614 4.79473L14.5805 4.30958M15.1614 4.79473L14.5805 4.30958M14.5805 4.30958C14.1468 3.94731 13.6681 3.73137 13.2339 3.53586C13.2336 3.53568 13.2332 3.53551 13.2328 3.53534L12.9965 3.42753L12.9962 3.42741M14.5805 4.30958L12.9962 3.42741M12.9962 3.42741C12.8289 3.35121 12.6616 3.27527 12.4941 3.19957L12.9962 3.42741Z" fill="#4C1D95" stroke="#4C1D95"/>
<path d="M3.17166 8.16375C3.29488 8.22086 3.29488 8.22086 3.42058 8.27912C3.68295 8.40091 3.94482 8.52374 4.20666 8.64667C4.80427 8.9254 5.40231 9.20317 6.00086 9.47987C6.17643 9.56126 6.35182 9.64302 6.52705 9.72512C6.78695 9.84667 7.04754 9.96662 7.30833 10.0862C7.42574 10.1418 7.42574 10.1418 7.54551 10.1984C8.14955 10.4726 8.55296 10.5525 9.19643 10.3136C9.33583 10.2495 9.47463 10.184 9.61291 10.1175C9.68831 10.0825 9.7637 10.0474 9.84137 10.0113C10.0025 9.93625 10.1634 9.86067 10.324 9.7846C10.5749 9.66594 10.8264 9.54889 11.0782 9.43232C11.4136 9.277 11.7488 9.1213 12.0839 8.96515C12.7119 8.67268 13.341 8.38302 13.9733 8.1C14.0704 8.05492 14.1675 8.00983 14.2675 7.96338C14.7592 7.745 15.1136 7.58916 15.6467 7.78667C15.8949 8.15906 15.9137 8.3085 15.86 8.74667C15.5257 9.17109 15.089 9.36254 14.6071 9.57792C14.526 9.61501 14.445 9.65211 14.3615 9.69033C14.0992 9.81008 13.8363 9.92841 13.5733 10.0467C13.3936 10.1283 13.2139 10.2099 13.0342 10.2917C8.70661 12.255 8.70661 12.255 7.66856 11.9245C7.52736 11.865 7.38689 11.8039 7.24708 11.7412C7.16981 11.708 7.09254 11.6748 7.01293 11.6406C6.761 11.5313 6.5104 11.4194 6.26 11.3067C6.17432 11.2683 6.08865 11.2298 6.00038 11.1903C5.46279 10.9483 4.9273 10.702 4.39273 10.4535C4.11707 10.3253 3.84116 10.1977 3.56521 10.0702C3.38665 9.98753 3.20811 9.90482 3.02958 9.82208C2.94868 9.78463 2.86778 9.74718 2.78442 9.70859C2.55582 9.60223 2.32779 9.49475 2.1 9.38667C2.01957 9.3489 1.93914 9.31113 1.85628 9.27222C1.25911 8.9849 1.25911 8.9849 1.14 8.74667C1.11241 8.31451 1.10753 8.15537 1.35333 7.78667C2.01379 7.56651 2.57812 7.88289 3.17166 8.16375Z" fill="#4C1D95"/>
<path d="M2.20667 11.0933C2.49673 11.1946 2.76047 11.3 3.03709 11.4292C3.15392 11.4817 3.15392 11.4817 3.27312 11.5354C3.43914 11.6103 3.60488 11.6859 3.77035 11.7621C4.02852 11.8808 4.28752 11.9976 4.5468 12.1139C5.29918 12.4524 6.04759 12.797 6.7875 13.1621C6.8931 13.2132 6.99869 13.2644 7.10748 13.3171C7.29618 13.4093 7.48363 13.5041 7.6694 13.602C8.12374 13.8265 8.12374 13.8265 8.61764 13.8248C8.6931 13.7971 8.76856 13.7694 8.84631 13.7409C8.93008 13.7102 9.01385 13.6795 9.10016 13.6479C9.49215 13.4911 9.8758 13.3206 10.2579 13.1412C10.3406 13.103 10.4233 13.0647 10.5085 13.0252C10.7704 12.904 11.0319 12.782 11.2933 12.66C11.8838 12.3853 12.4747 12.1114 13.0669 11.8403C13.2184 11.7707 13.3698 11.7008 13.5211 11.6305C13.7219 11.5374 13.9235 11.4462 14.1254 11.3554C14.2373 11.3044 14.3491 11.2533 14.4643 11.2007C14.8417 11.0775 15.1453 11.0664 15.54 11.0933C15.7467 11.2067 15.7467 11.2067 15.86 11.4133C15.9333 11.7733 15.9333 11.7733 15.86 12.16C15.3671 12.5823 14.7187 12.8459 14.1313 13.1121C14.0503 13.1493 13.9693 13.1866 13.8859 13.2249C13.6264 13.344 13.3666 13.4621 13.1067 13.58C13.0183 13.6202 12.9299 13.6604 12.8388 13.7019C12.3207 13.9376 11.8021 14.172 11.2831 14.4058C10.984 14.541 10.6859 14.6782 10.3875 14.815C10.214 14.8925 10.0404 14.9697 9.86667 15.0467C9.7943 15.0803 9.72193 15.114 9.64737 15.1487C8.952 15.4481 8.2327 15.4841 7.51875 15.2175C7.35823 15.1471 7.19869 15.0744 7.04 15C6.95002 14.9596 6.86003 14.9192 6.76732 14.8776C6.48942 14.7521 6.21257 14.6245 5.93588 14.4964C5.60829 14.3454 5.27974 14.1966 4.95132 14.0475C4.47828 13.8325 4.00579 13.6163 3.53334 13.4C3.43953 13.3571 3.34573 13.3143 3.24908 13.2701C2.97899 13.1465 2.70924 13.0221 2.43959 12.8975C2.3579 12.8602 2.2762 12.8229 2.19204 12.7844C1.40735 12.42 1.40735 12.42 1.14 12.16C1.09407 11.7925 1.07245 11.5365 1.25334 11.2067C1.5778 11.0287 1.84039 11.0684 2.20667 11.0933Z" fill="#4C1D95"/>
</svg>
